<?xml version="1.0" encoding="utf-8"?>
<!-- Generator: Adobe Illustrator 15.0.2, SVG Export Plug-In  -->
<!DOCTYPE svg PUBLIC "-//W3C//DTD SVG 1.1//EN" "http://www.w3.org/Graphics/SVG/1.1/DTD/svg11.dtd" [
	<!ENTITY ns_flows "http://ns.adobe.com/Flows/1.0/">
]>
<svg version="1.1"
	 xmlns="http://www.w3.org/2000/svg" xmlns:xlink="http://www.w3.org/1999/xlink" xmlns:a="http://ns.adobe.com/AdobeSVGViewerExtensions/3.0/"
	 x="0px" y="0px" width="211px" height="213px" viewBox="0 0 211 213" enable-background="new 0 0 211 213" xml:space="preserve">
<defs>
</defs>
<g>
	<circle fill="#0378A6" cx="105.75" cy="106.685" r="105"/>
</g>
<path fill="#FFFFFF" d="M105.75,132.361c11.306,0,20.504-11.976,20.504-26.696c0-1.935-0.168-3.815-0.47-5.634h-5.592L105.75,120.65
	l-14.441-20.619h-5.593c-0.302,1.818-0.47,3.699-0.47,5.634C85.246,120.386,94.444,132.361,105.75,132.361z"/>
<path fill="#FFFFFF" d="M135.847,100.031h-7.17c0.279,1.825,0.438,3.706,0.438,5.634c0,15.862-9.938,28.811-22.347,29.491
	c-0.344,0.385-5.218,5.972-2.238,10.069c1.069,1.466,3.035,1.023,6.157,0.174c3.796-1.033,8.994-2.443,11.701,3.402
	c0.922,1.99,0.936,3.977,0.04,5.902c-1.959,4.215-8.058,7.094-11.938,8.553c-0.142,2.506-2.2,4.5-4.739,4.5
	c-2.634,0-4.768-2.136-4.768-4.769c0-2.632,2.134-4.767,4.768-4.767c1.704,0,3.188,0.901,4.031,2.246
	c3.734-1.442,8.637-3.923,10.053-6.972c0.53-1.143,0.517-2.285-0.042-3.493c-1.61-3.478-4.222-2.966-8.354-1.844
	c-3.252,0.887-6.939,1.887-9.222-1.253c-3.152-4.334-0.745-9.243,1.034-11.859c-11.712-1.584-20.865-14.153-20.865-29.382
	c0-1.928,0.158-3.809,0.438-5.634h-7.171c-11.545,0-20.904,9.36-20.904,20.904v30.1c0,11.544,9.359,20.904,20.904,20.904h60.194
	c11.546,0,20.906-9.36,20.906-20.904v-30.1C156.753,109.392,147.393,100.031,135.847,100.031z M147.536,137.29
	c0,1.013-0.819,1.832-1.831,1.832H127.72c-1.011,0-1.832-0.819-1.832-1.832v-0.101c0-1.013,0.821-1.832,1.832-1.832h17.985
	c1.012,0,1.831,0.819,1.831,1.832V137.29z"/>
<ellipse fill="#FFFFFF" cx="105.75" cy="70.047" rx="27.017" ry="28.62"/>
<rect id="_x3C_Slice_x3E__5_" fill="none" width="211" height="213"/>
</svg>
